<svg xmlns="http://www.w3.org/2000/svg" viewBox="0 0 974 134" width="974" height="134"><path fill-rule="evenodd" d="M406 132C393 129 380 121 372 112C366 106 360 93 357 84C355 75 355 58 357 49C362 31 375 15 391 7C402 2 409 0 422 -0C442 -0 457 6 471 19C484 33 490 48 490 68C490 87 484 102 471 115C458 128 443 134 423 134C416 134 409 133 406 132ZM-0 67L-0 2L37 3C63 3 75 4 78 5C90 9 98 16 103 26C106 32 106 33 106 42C106 51 106 53 104 59C98 70 87 79 73 82L68 83L70 86C78 94 110 130 110 131C110 131 103 131 95 131L80 131L76 127C74 124 65 114 55 104L38 84L38 79L38 74L51 73C68 72 73 70 78 58C80 54 80 52 80 43C80 33 80 32 78 27C75 21 71 17 65 15C63 14 54 14 43 14L24 14L24 73L24 131L12 131L-0 132L-0 67ZM125 131C125 131 125 102 125 67L125 3L169 3L214 2L214 8L214 14L181 14L148 14L148 38L148 62L176 62L204 62L205 68L205 73L177 73L148 74L148 97L148 120L181 120L214 120L214 126L214 132L170 132C145 132 125 131 125 131ZM236 131L231 131L231 67L231 3L245 3L260 3L294 58L328 112L328 58L328 3L334 3L339 2L339 67L339 132L326 131C318 131 312 131 311 131C311 130 295 106 276 76L242 21L242 76C242 106 242 131 241 131C241 131 238 131 236 131ZM543 130C542 130 485 5 485 4C485 3 490 3 498 3L510 3L533 53C546 80 556 103 557 103C557 104 567 82 579 54C591 27 602 4 602 4C602 3 605 3 608 3C613 3 614 3 614 4C613 6 561 124 559 128C558 131 557 131 551 131C547 131 543 131 543 130ZM687 129C686 128 675 105 663 78C651 51 641 29 641 30C641 30 630 53 618 80C606 108 597 131 596 131C596 131 594 131 590 131L584 130L612 67L640 3L648 3L656 3L684 65C699 99 712 128 713 130C713 131 713 132 700 132C688 132 688 131 687 129ZM767 130C767 130 767 101 767 66L768 3L799 3C834 3 839 4 849 8C856 12 860 15 862 21C868 32 865 46 857 54C853 57 846 61 844 61C841 61 843 63 848 64C862 69 871 83 870 98C869 107 867 112 861 118C857 122 849 127 842 129C836 131 768 132 767 130ZM885 131C885 131 885 102 885 67L885 3L929 3L974 2L974 8L974 14L941 14L908 14L908 38L908 62L936 62L965 62L965 67L965 73L937 73L908 74L908 97L908 120L941 120L974 120L974 126L974 132L930 132C905 132 885 131 885 131ZM451 116C459 112 468 103 473 94C477 86 477 76 473 67C469 58 461 47 452 38C443 29 434 23 424 18C418 15 416 14 409 14C402 14 400 15 395 17C386 21 377 31 373 39C367 51 369 62 378 77C387 92 403 108 418 115C432 122 439 122 451 116ZM831 118C848 110 849 82 832 72C829 70 827 69 819 69L810 68L810 63L810 58L818 57C827 56 829 56 833 51C837 47 839 42 839 35C839 27 836 21 831 17L828 14L809 14L791 14L791 67L791 120L809 120C825 120 827 120 831 118Z"/></svg>