<svg xmlns="http://www.w3.org/2000/svg" viewBox="0 0 1000 1000" width="500" height="500" role="img" aria-label="EnviAgora seta">
<g transform="translate(0.000000,1000.000000) scale(0.100000,-0.100000)"
fill="#C4FF57" >
<path d="M200 9570 c0 -200 -4 -310 -10 -310 -6 0 -10 -90 -10 -250 0 -160 4
-250 10 -250 16 0 13 -217 -3 -224 -9 -5 -9 -7 1 -12 7 -3 12 -25 12 -55 l0
-49 3540 0 c3165 0 3540 -2 3540 -15 0 -9 -67 -83 -150 -165 -82 -82 -150
-156 -150 -165 0 -8 -9 -15 -20 -15 -13 0 -20 -7 -20 -20 0 -13 -7 -20 -20
-20 -13 0 -20 -7 -20 -20 0 -13 -7 -20 -20 -20 -13 0 -20 -7 -20 -20 0 -13 -7
-20 -20 -20 -13 0 -20 -7 -20 -20 0 -13 -7 -20 -20 -20 -13 0 -20 -7 -20 -20
0 -13 -7 -20 -20 -20 -13 0 -20 -7 -20 -20 0 -13 -7 -20 -20 -20 -13 0 -20 -7
-20 -20 0 -13 -7 -20 -20 -20 -13 0 -20 -7 -20 -20 0 -13 -7 -20 -20 -20 -13
0 -20 -7 -20 -20 0 -13 -7 -20 -20 -20 -11 0 -20 -7 -20 -15 0 -8 -166 -182
-370 -385 -203 -203 -370 -377 -370 -385 0 -8 -9 -15 -20 -15 -13 0 -20 -7
-20 -20 0 -13 -7 -20 -20 -20 -13 0 -20 -7 -20 -20 0 -13 -7 -20 -20 -20 -13
0 -20 -7 -20 -20 0 -13 -7 -20 -20 -20 -13 0 -20 -7 -20 -20 0 -13 -7 -20 -20
-20 -13 0 -20 -7 -20 -20 0 -13 -7 -20 -20 -20 -11 0 -20 -7 -20 -15 0 -9 -20
-36 -45 -60 -24 -25 -51 -45 -60 -45 -8 0 -15 -7 -15 -15 0 -8 -189 -204 -420
-435 -231 -231 -420 -427 -420 -435 0 -8 -7 -15 -15 -15 -20 0 -145 -125 -145
-145 0 -8 -9 -15 -20 -15 -13 0 -20 -7 -20 -20 0 -13 -7 -20 -20 -20 -13 0
-20 -7 -20 -20 0 -13 -7 -20 -20 -20 -13 0 -20 -7 -20 -20 0 -13 -7 -20 -20
-20 -11 0 -20 -7 -20 -15 0 -8 -157 -173 -350 -365 -193 -192 -350 -357 -350
-365 0 -8 -9 -15 -20 -15 -13 0 -20 -7 -20 -20 0 -13 -7 -20 -20 -20 -13 0
-20 -7 -20 -20 0 -13 -7 -20 -20 -20 -13 0 -20 -7 -20 -20 0 -13 -7 -20 -20
-20 -13 0 -20 -7 -20 -20 0 -13 -7 -20 -20 -20 -13 0 -20 -7 -20 -20 0 -13 -7
-20 -20 -20 -11 0 -20 -7 -20 -15 0 -8 -225 -240 -500 -515 -275 -275 -500
-507 -500 -515 0 -8 -9 -15 -20 -15 -12 0 -20 -7 -20 -16 0 -18 -23 -44 -40
-44 -17 0 -40 -26 -40 -44 0 -9 -8 -16 -20 -16 -11 0 -20 -7 -20 -15 0 -8
-184 -200 -410 -425 -225 -225 -410 -417 -410 -425 0 -8 -9 -15 -20 -15 -11 0
-20 -7 -20 -15 0 -8 -261 -276 -580 -595 l-580 -580 0 -75 c0 -43 -4 -75 -10
-75 -6 0 -10 -123 -10 -350 0 -227 4 -350 10 -350 6 0 10 -47 10 -120 l0 -120
515 0 515 0 205 205 c113 113 205 209 205 215 0 6 139 150 310 320 170 170
310 317 310 325 0 8 7 15 15 15 20 0 105 85 105 105 0 8 9 15 20 15 13 0 20 7
20 20 0 13 7 20 20 20 13 0 20 7 20 20 0 13 7 20 20 20 11 0 20 7 20 15 0 20
85 105 105 105 8 0 15 9 15 20 0 13 7 20 20 20 13 0 20 7 20 20 0 13 7 20 20
20 13 0 20 7 20 20 0 13 7 20 20 20 11 0 20 7 20 15 0 8 185 200 410 425 226
225 410 414 410 420 0 6 171 181 380 390 209 209 380 387 380 395 0 8 7 15 15
15 9 0 36 20 60 45 25 24 45 51 45 60 0 8 9 15 20 15 13 0 20 7 20 20 0 13 7
20 20 20 13 0 20 7 20 20 0 13 7 20 20 20 11 0 20 7 20 15 0 20 45 65 65 65 8
0 15 9 15 20 0 13 7 20 20 20 13 0 20 7 20 20 0 13 7 20 20 20 11 0 20 7 20
15 0 8 202 218 450 465 247 247 450 454 450 460 0 6 203 213 450 460 248 247
450 455 450 461 0 16 26 39 44 39 9 0 16 7 16 15 0 18 64 85 80 85 17 0 40 26
40 44 0 9 8 16 20 16 13 0 20 7 20 20 0 13 7 20 20 20 11 0 20 7 20 15 0 8
144 159 320 335 176 176 320 327 320 335 0 8 9 15 20 15 13 0 20 7 20 20 0 13
7 20 20 20 13 0 20 7 20 20 0 13 7 20 20 20 11 0 20 7 20 15 0 20 785 805 805
805 13 0 15 -404 15 -3606 0 -3111 2 -3607 14 -3620 22 -21 1430 -21 1452 0
12 13 14 527 14 3760 0 2491 -3 3746 -10 3746 -6 0 -10 27 -10 60 0 33 -4 60
-10 60 -6 0 -10 37 -10 90 0 53 -4 90 -10 90 -5 0 -10 14 -10 30 0 17 -4 30
-10 30 -6 0 -10 27 -10 60 0 33 -4 60 -10 60 -5 0 -10 9 -10 20 0 11 -4 20
-10 20 -5 0 -10 18 -10 40 0 22 -4 40 -10 40 -5 0 -10 9 -10 20 0 11 -4 20
-10 20 -5 0 -10 17 -10 38 0 26 -6 42 -20 52 -14 10 -20 26 -20 50 0 24 -6 40
-20 50 -11 8 -20 26 -20 40 0 14 -9 32 -20 40 -11 8 -20 26 -20 40 0 14 -9 32
-20 40 -11 8 -20 21 -20 30 0 9 -9 22 -20 30 -11 8 -20 21 -20 30 0 9 -9 22
-20 30 -11 8 -20 26 -20 40 0 14 -9 32 -20 40 -11 8 -20 21 -20 28 0 7 -18 31
-40 52 -22 21 -40 45 -40 52 0 7 -9 20 -20 28 -11 8 -20 22 -20 32 0 11 -7 18
-20 18 -13 0 -20 7 -20 20 0 13 -7 20 -20 20 -11 0 -20 7 -20 15 0 17 -204
225 -221 225 -6 0 -24 14 -39 30 -15 17 -33 30 -40 30 -7 0 -25 14 -40 30 -15
17 -33 30 -40 30 -7 0 -25 14 -40 30 -15 17 -34 30 -42 30 -7 0 -20 9 -28 20
-8 11 -22 20 -32 20 -10 0 -18 5 -18 10 0 6 -9 10 -20 10 -11 0 -20 5 -20 10
0 6 -8 10 -18 10 -10 0 -24 9 -32 20 -8 11 -22 20 -32 20 -10 0 -18 5 -18 10
0 6 -9 10 -20 10 -11 0 -20 5 -20 10 0 6 -9 10 -20 10 -11 0 -20 5 -20 10 0 6
-9 10 -20 10 -11 0 -20 5 -20 10 0 6 -13 10 -30 10 -16 0 -30 5 -30 10 0 6 -9
10 -20 10 -11 0 -20 5 -20 10 0 6 -13 10 -30 10 -16 0 -30 5 -30 10 0 6 -9 10
-20 10 -11 0 -20 5 -20 10 0 6 -13 10 -30 10 -16 0 -30 5 -30 10 0 6 -13 10
-30 10 -16 0 -30 5 -30 10 0 6 -22 10 -50 10 -27 0 -50 5 -50 10 0 6 -13 10
-30 10 -16 0 -30 5 -30 10 0 6 -30 10 -70 10 -40 0 -70 4 -70 10 0 6 -18 10
-40 10 -22 0 -40 5 -40 10 0 7 -1257 10 -3750 10 l-3750 0 0 -310z"/>
</g>
</svg>
